<svg width="60" height="52" viewBox="0 0 60 52" fill="none" xmlns="http://www.w3.org/2000/svg">
<path d="M15 0C13.125 0 11.25 0.78 9.7875 2.22857C8.325 3.67714 7.5 5.38571 7.5 7.42857V18.5714C5.5125 18.5714 3.75 19.2771 2.2125 20.7629C0.675001 22.2486 0 24.0314 0 26V44.5714H5.025L7.5 52H11.25L13.8375 44.5714H46.35L48.75 52H52.5L54.975 44.5714H60V26C60 24.0314 59.2875 22.2857 57.7875 20.7629C56.2875 19.24 54.4875 18.5714 52.5 18.5714V7.42857C52.5 5.38571 51.75 3.71429 50.2125 2.22857C48.675 0.742857 46.875 0 45 0M15 7.42857H26.25V18.5714H15M33.75 7.42857H45V18.5714H33.75M7.5 26H52.5V37.1429H7.5V26Z" fill="white"/>
</svg>
