<svg width="63" height="63" viewBox="0 0 63 63" fill="none" xmlns="http://www.w3.org/2000/svg">
<path d="M25.6674 42.2271L16.2777 51.6167C18.4651 53.1751 18.7597 56.4532 16.8444 58.3686C16.4326 58.7806 15.9436 59.1075 15.4055 59.3306C14.8673 59.5536 14.2904 59.6684 13.7079 59.6684C13.1253 59.6684 12.5485 59.5536 12.0103 59.3306C11.4721 59.1075 10.9832 58.7806 10.5714 58.3686C9.20572 57.0029 8.73822 54.7901 9.52589 53.1411C7.87689 53.9287 5.66406 53.4612 4.29839 52.0956C3.46704 51.264 3 50.1363 3 48.9605C3 47.7846 3.46704 46.6569 4.29839 45.8254C6.21372 43.9101 9.49189 44.2019 11.0502 46.3921L20.4399 36.9996" stroke="white" stroke-width="6" stroke-linejoin="round"/>
<path d="M32.8556 7.76521C39.4686 1.15221 48.8129 1.67638 54.9018 7.76521C59.7609 12.6244 61.0784 19.5575 58.0468 25.5217C53.0176 18.852 41.6984 23.9634 43.8149 32.3415C39.1456 30.3979 35.1393 36.4017 38.3551 40.0114C31.6118 42.7569 24.9024 43.9072 21.8311 40.833C15.7423 34.747 26.2426 14.3782 32.8556 7.76521Z" stroke="white" stroke-width="6" stroke-linejoin="round"/>
</svg>
