<svg width="74" height="70" viewBox="0 0 74 70" fill="none" xmlns="http://www.w3.org/2000/svg">
<path d="M34.5654 1.26098C35.2364 0.665103 36.1027 0.335999 37.0001 0.335999C37.8975 0.335999 38.7637 0.665103 39.4347 1.26098L72.4347 30.5943C73.1245 31.2496 73.5326 32.1474 73.5728 33.098C73.6129 34.0486 73.282 34.9776 72.6499 35.6887C72.0178 36.3998 71.134 36.8374 70.1852 36.909C69.2365 36.9806 68.297 36.6805 67.5654 36.0723L66.3334 34.9833V62.6666C66.3334 64.6116 65.5608 66.4768 64.1855 67.8521C62.8102 69.2274 60.945 70 59.0001 70H15.0001C13.0551 70 11.1899 69.2274 9.81461 67.8521C8.43934 66.4768 7.66672 64.6116 7.66672 62.6666V34.9833L6.43472 36.0723C5.70307 36.6805 4.76364 36.9806 3.81489 36.909C2.86613 36.8374 1.98235 36.3998 1.35024 35.6887C0.718132 34.9776 0.387195 34.0486 0.427341 33.098C0.467487 32.1474 0.875573 31.2496 1.56539 30.5943L34.5654 1.26098ZM15.0001 28.4566V62.6666H26.0001V44.3333C26.0001 43.3609 26.3864 42.4282 27.074 41.7406C27.7616 41.053 28.6943 40.6666 29.6667 40.6666H44.3334C45.3059 40.6666 46.2385 41.053 46.9261 41.7406C47.6137 42.4282 48.0001 43.3609 48.0001 44.3333V62.6666H59.0001V28.4603L37.0001 8.90598L15.0001 28.4566ZM40.6667 62.6666V48H33.3334V62.6666H40.6667Z" fill="white"/>
</svg>
