<svg width="54" height="53" viewBox="0 0 54 53" fill="none" xmlns="http://www.w3.org/2000/svg">
<g filter="url(#filter0_d_2_8)">
<path d="M14.5 3V45.5M7 3V10.5C7 11.4849 7.19399 12.4602 7.5709 13.3701C7.94781 14.2801 8.50026 15.1069 9.1967 15.8033C9.89314 16.4997 10.7199 17.0522 11.6299 17.4291C12.5398 17.806 13.5151 18 14.5 18C15.4849 18 16.4602 17.806 17.3701 17.4291C18.2801 17.0522 19.1069 16.4997 19.8033 15.8033C20.4997 15.1069 21.0522 14.2801 21.4291 13.3701C21.806 12.4602 22 11.4849 22 10.5V3M39.5 23C37.5109 23 35.6032 21.9464 34.1967 20.0711C32.7902 18.1957 32 15.6522 32 13C32 10.3478 32.7902 7.8043 34.1967 5.92893C35.6032 4.05357 37.5109 3 39.5 3C41.4891 3 43.3968 4.05357 44.8033 5.92893C46.2098 7.8043 47 10.3478 47 13C47 15.6522 46.2098 18.1957 44.8033 20.0711C43.3968 21.9464 41.4891 23 39.5 23ZM39.5 23V45.5" stroke="white" stroke-width="6" stroke-linecap="round" stroke-linejoin="round" shape-rendering="crispEdges"/>
</g>
<defs>
<filter id="filter0_d_2_8" x="0" y="0" width="54" height="56.5" filterUnits="userSpaceOnUse" color-interpolation-filters="sRGB">
<feFlood flood-opacity="0" result="BackgroundImageFix"/>
<feColorMatrix in="SourceAlpha" type="matrix" values="0 0 0 0 0 0 0 0 0 0 0 0 0 0 0 0 0 0 127 0" result="hardAlpha"/>
<feOffset dy="4"/>
<feGaussianBlur stdDeviation="2"/>
<feComposite in2="hardAlpha" operator="out"/>
<feColorMatrix type="matrix" values="0 0 0 0 0 0 0 0 0 0 0 0 0 0 0 0 0 0 0.25 0"/>
<feBlend mode="normal" in2="BackgroundImageFix" result="effect1_dropShadow_2_8"/>
<feBlend mode="normal" in="SourceGraphic" in2="effect1_dropShadow_2_8" result="shape"/>
</filter>
</defs>
</svg>
