<svg width="54" height="54" viewBox="0 0 54 54" fill="none" xmlns="http://www.w3.org/2000/svg">
<g clip-path="url(#clip0_2_14)">
<path d="M47.6044 38.9327C49.429 37.5458 50.625 35.3753 50.625 32.9062C50.625 28.7118 47.2247 25.3125 43.0312 25.3125H41.5473C42.9627 24.0754 43.875 22.2771 43.875 20.25C43.875 16.5217 40.8533 13.5 37.125 13.5H36.5048C36.8814 12.44 37.125 11.3147 37.125 10.125C37.125 4.53305 32.592 0 27 0C26.4547 0 25.9295 0.0780469 25.4064 0.160312C26.3999 1.54406 27 3.22945 27 5.0625C27 9.72211 23.2221 13.5 18.5625 13.5H16.875C13.1467 13.5 10.125 16.5217 10.125 20.25C10.125 22.2771 11.0373 24.0754 12.4527 25.3125H10.9688C6.77531 25.3125 3.375 28.7118 3.375 32.9062C3.375 35.3753 4.57102 37.5458 6.39562 38.9327C2.77488 39.5107 0 42.622 0 46.4062C0 50.5997 3.40031 54 7.59375 54H46.4062C50.5997 54 54 50.5997 54 46.4062C54 42.622 51.2251 39.5107 47.6044 38.9327Z" fill="white"/>
</g>
<defs>
<clipPath id="clip0_2_14">
<rect width="54" height="54" fill="white"/>
</clipPath>
</defs>
</svg>
