<svg width="59" height="65" viewBox="0 0 59 65" fill="none" xmlns="http://www.w3.org/2000/svg">
<path d="M14.6668 32.1666H52.5834C53.357 32.1666 54.0989 32.4739 54.6458 33.0209C55.1928 33.5679 55.5001 34.3097 55.5001 35.0833C55.5001 38.951 53.9637 42.6604 51.2288 45.3953C48.4938 48.1302 44.7845 49.6666 40.9168 49.6666H39.1726C38.9123 49.6666 38.6567 49.7363 38.4324 49.8684C38.2081 50.0006 38.0233 50.1903 37.8971 50.418C37.7709 50.6457 37.7079 50.903 37.7148 51.1632C37.7216 51.4235 37.798 51.6771 37.9359 51.8979L42.4393 59.102C42.5772 59.3228 42.6536 59.5765 42.6604 59.8367C42.6673 60.0969 42.6043 60.3542 42.4781 60.5819C42.3519 60.8096 42.1671 60.9994 41.9428 61.1315C41.7185 61.2636 41.4629 61.3333 41.2026 61.3333H10.0059C9.74562 61.3333 9.49005 61.2636 9.26575 61.1315C9.04146 60.9994 8.85662 60.8096 8.73042 60.5819C8.60423 60.3542 8.54128 60.0969 8.54811 59.8367C8.55494 59.5765 8.63131 59.3228 8.76928 59.102L14.6668 49.6666" stroke="white" stroke-width="6" stroke-linecap="round" stroke-linejoin="round"/>
<path d="M17.5833 49.6667C13.7156 49.6667 10.0063 48.1302 7.27136 45.3953C4.53645 42.6604 3 38.9511 3 35.0833V8.83333C3 7.28624 3.61458 5.80251 4.70854 4.70854C5.80251 3.61458 7.28624 3 8.83333 3H32.1667C33.7138 3 35.1975 3.61458 36.2915 4.70854C37.3854 5.80251 38 7.28624 38 8.83333V32.1667" stroke="white" stroke-width="6" stroke-linecap="round" stroke-linejoin="round"/>
</svg>
