<svg width="21" height="21" viewBox="0 0 21 21" fill="none" xmlns="http://www.w3.org/2000/svg">
<path d="M19.9955 12.5016H18.998V11.4976H17.9939V12.5016H16.9964V13.4991H14.9949V12.5016H13.9974V11.4976H10.9983V12.5016H8.99676V13.4991H5.9977V12.5016H4.99363V11.4976H1.99457V12.5016H0.99707V13.4991H1.99457V16.4982H2.99863V14.4966H17.9939V16.4982H18.998V14.4966H19.9955V13.4991H20.9996V10.5001H19.9955V12.5016ZM16.9964 16.4982H17.9939V17.5022H16.9964V16.4982ZM16.9964 5.49943H17.9939V6.49693H16.9964V5.49943ZM15.9989 4.50193H16.9964V5.49943H15.9989V4.50193ZM3.99613 17.5022H16.9964V18.4997H3.99613V17.5022ZM13.9974 5.49943H14.9949V6.49693H13.9974V5.49943ZM13.9974 3.49787H15.9989V4.50193H13.9974V3.49787ZM11.9958 6.49693H12.9999V7.50099H11.9958V6.49693ZM11.9958 4.50193H12.9999V5.49943H11.9958V4.50193ZM9.99426 5.49943H10.9983V6.49693H9.99426V5.49943ZM7.99926 6.49693H8.99676V7.50099H7.99926V6.49693ZM7.99926 4.50193H8.99676V5.49943H7.99926V4.50193ZM6.99519 2.50037H13.9974V3.49787H6.99519V2.50037ZM5.9977 5.49943H6.99519V6.49693H5.9977V5.49943ZM4.99363 3.49787H6.99519V4.50193H4.99363V3.49787ZM3.99613 4.50193H4.99363V5.49943H3.99613V4.50193ZM2.99863 16.4982H3.99613V17.5022H2.99863V16.4982ZM2.99863 5.49943H3.99613V6.49693H2.99863V5.49943Z" fill="black"/>
<path d="M19.9959 10.5V9.49589H18.9984V6.49683H17.9944V9.49589H2.99906V6.49683H1.995V9.49589H0.9975V10.5H19.9959ZM0 10.5H0.9975V12.5015H0V10.5Z" fill="black"/>
</svg>
