<svg width="16" height="23" viewBox="0 0 16 23" fill="none" xmlns="http://www.w3.org/2000/svg">
<rect x="3" y="2" width="2" height="1" fill="black"/>
<rect x="5" y="2" width="1" height="1" fill="black"/>
<rect x="6" y="2" width="2" height="1" fill="black"/>
<rect x="8" y="2" width="2" height="1" fill="black"/>
<rect x="10" y="2" width="1" height="1" fill="black"/>
<rect x="11" y="2" width="2" height="1" fill="black"/>
<rect x="2" y="3" width="1" height="2" fill="black"/>
<rect x="13" y="3" width="1" height="2" fill="black"/>
<rect x="2" y="5" width="1" height="1" fill="black"/>
<rect x="13" y="5" width="1" height="1" fill="black"/>
<rect x="2" y="6" width="1" height="2" fill="black"/>
<rect x="5" y="6" width="1" height="1" fill="black"/>
<rect x="6" y="6" width="2" height="1" fill="black"/>
<rect x="13" y="6" width="1" height="2" fill="black"/>
<rect x="2" y="8" width="1" height="2" fill="black"/>
<rect x="3" y="9" width="2" height="1" fill="black"/>
<rect x="5" y="9" width="1" height="1" fill="black"/>
<rect x="6" y="9" width="2" height="1" fill="black"/>
<rect x="8" y="9" width="2" height="1" fill="black"/>
<rect x="10" y="9" width="1" height="1" fill="black"/>
<rect x="11" y="9" width="2" height="1" fill="black"/>
<rect x="13" y="8" width="1" height="2" fill="black"/>
<rect x="2" y="10" width="1" height="1" fill="black"/>
<rect x="3" y="10" width="2" height="1" fill="black"/>
<rect x="5" y="10" width="1" height="1" fill="black"/>
<rect x="6" y="10" width="2" height="1" fill="black"/>
<rect x="8" y="10" width="2" height="1" fill="black"/>
<rect x="10" y="10" width="1" height="1" fill="black"/>
<rect x="11" y="10" width="2" height="1" fill="black"/>
<rect x="13" y="10" width="1" height="1" fill="black"/>
<rect x="2" y="11" width="1" height="2" fill="black"/>
<rect x="13" y="11" width="1" height="2" fill="black"/>
<rect x="2" y="13" width="1" height="1" fill="black"/>
<rect x="5" y="13" width="1" height="1" fill="black"/>
<rect x="6" y="13" width="2" height="1" fill="black"/>
<rect x="13" y="13" width="1" height="1" fill="black"/>
<rect x="2" y="14" width="1" height="2" fill="black"/>
<rect x="13" y="14" width="1" height="2" fill="black"/>
<rect x="2" y="16" width="1" height="1" fill="black"/>
<rect x="13" y="16" width="1" height="1" fill="black"/>
<rect x="2" y="17" width="1" height="2" fill="black"/>
<rect x="13" y="17" width="1" height="2" fill="black"/>
<rect x="3" y="19" width="2" height="1" fill="black"/>
<rect x="5" y="19" width="1" height="1" fill="black"/>
<rect x="6" y="19" width="2" height="1" fill="black"/>
<rect x="8" y="19" width="2" height="1" fill="black"/>
<rect x="10" y="19" width="1" height="1" fill="black"/>
<rect x="11" y="19" width="2" height="1" fill="black"/>
</svg>
