<svg width="24" height="21" viewBox="0 0 24 21" fill="none" xmlns="http://www.w3.org/2000/svg">
<path d="M17.075 11.645H18.215V12.785H17.075V11.645ZM15.9275 12.785H17.075V13.925H15.9275V12.785ZM12.5 10.4975H17.075V11.645H12.5V10.4975ZM14.7875 13.925H15.9275V15.0725H14.7875V13.925ZM13.6475 17.36H18.215V18.5H13.6475V17.36ZM13.6475 15.0725H14.7875V16.2125H13.6475V15.0725ZM12.5 16.2125H13.6475V17.36H12.5V16.2125ZM10.715 4.14H11.855V5.2875H10.715V4.14ZM9.5675 7.5675H11.855V8.715H9.5675V7.5675ZM9.5675 5.2875H10.715V6.4275H9.5675V5.2875ZM8.4275 3H10.715V4.14H8.4275V3ZM8.4275 6.4275H9.5675V7.5675H8.4275V6.4275ZM7.2875 12.1425H8.4275V13.2825H7.2875V12.1425ZM6.1475 15.57H8.4275V16.71H6.1475V15.57ZM6.1475 13.2825H7.2875V14.43H6.1475V13.2825ZM5 11.0025H7.2875V12.1425H5V11.0025ZM5 14.43H6.1475V15.57H5V14.43Z" fill="black"/>
</svg>
